<svg width="72" height="72" viewBox="0 0 72 72" fill="none" xmlns="http://www.w3.org/2000/svg">
<path d="M0 36C0 16.1178 16.1177 0 36 0C55.8822 0 72 16.1178 72 36C72 55.8823 55.8822 72 36 72C16.1177 72 0 55.8823 0 36Z" fill="#4E7CF4"/>
<path fill-rule="evenodd" clip-rule="evenodd" d="M41.4168 27.4439C40.9451 32.7417 39.291 37.1759 36.1373 41.4481C34.3632 39.4857 32.6156 37.1941 31.5047 34.8286C33.1812 34.5108 35.3881 34.2704 37.0821 34.0818C40.1626 33.7389 41.4153 29.9904 37.3868 29.7675C33.4337 29.5487 29.7657 30.0424 26.302 31.1444C26.2506 31.155 26.1991 31.1656 26.1476 31.1764C26.149 31.1818 26.1504 31.1872 26.1518 31.1926C25.0179 31.5597 23.906 31.9921 22.813 32.486C16.0795 35.5292 14.4976 42.2925 17.3597 47.0777C18.6633 49.2572 20.7574 50.8832 23.2452 51.6142C26.7502 52.7746 32.989 50.6965 33.6381 48.0675C34.0248 46.2677 33.0026 44.6864 30.8768 46.318L30.945 46.2542C30.8633 46.3107 30.7815 46.3662 30.6994 46.4206C26.7828 49.0169 22.7469 47.1959 21.3471 44.8555C19.9571 42.5317 20.796 38.6948 24.9204 36.8308C25.7714 36.4462 26.6709 36.086 27.6088 35.7613C27.6112 35.7674 27.6136 35.7735 27.616 35.7796C29.8394 41.4492 33.6536 46.337 38.7926 49.7991C44.8896 53.9065 51.7484 51.8472 54.6105 47.062C57.4726 42.2768 56.0356 35.6404 49.1572 32.4704C48.0835 31.9755 46.9891 31.561 45.8745 31.2204C46.1041 30.1124 46.2673 28.9907 46.3684 27.8546C47.005 20.7041 41.7281 16 36.0039 16C30.6913 16 25.7996 19.893 25.5994 26.3167C25.6339 27.7877 26.1831 28.64 26.8791 29.2389C28.7617 30.651 30.0747 29.3422 29.9236 27.48C29.5526 22.9078 33.2043 20.4444 36.0039 20.4444C38.7837 20.4444 41.8066 23.0641 41.4168 27.4439ZM44.7056 35.279C43.5571 38.3553 41.7214 41.499 39.2902 44.372C40.0328 44.9764 40.8849 45.3584 41.637 45.8651C45.3714 48.3809 49.2332 47.1637 50.6231 44.8399C52.0229 42.4995 51.6387 38.2151 47.3511 36.2391C46.5323 35.8618 45.6449 35.543 44.7056 35.279Z" fill="#161719"/>
</svg>
